<mxfile host="app.diagrams.net" modified="2022-05-19T09:27:29.453Z" agent="5.0 (Windows NT 10.0; Win64; x64) AppleWebKit/537.36 (KHTML, like Gecko) Chrome/101.0.0.0 Safari/537.36" etag="lIkMF6f4fV7D41XmwWB8" version="18.0.7" type="github">
  <diagram id="C5RBs43oDa-KdzZeNtuy" name="Page-1">
    <mxGraphModel dx="1422" dy="882" grid="0" gridSize="10" guides="1" tooltips="1" connect="1" arrows="1" fold="1" page="0" pageScale="1" pageWidth="827" pageHeight="1169" math="0" shadow="0">
      <root>
        <mxCell id="WIyWlLk6GJQsqaUBKTNV-0" />
        <mxCell id="WIyWlLk6GJQsqaUBKTNV-1" parent="WIyWlLk6GJQsqaUBKTNV-0" />
        <mxCell id="GIq7T0GoQN-_G19XyWKd-5" value="finish" style="ellipse;whiteSpace=wrap;html=1;" vertex="1" parent="WIyWlLk6GJQsqaUBKTNV-1">
          <mxGeometry x="244" y="710" width="170" height="60" as="geometry" />
        </mxCell>
        <mxCell id="GIq7T0GoQN-_G19XyWKd-18" style="edgeStyle=orthogonalEdgeStyle;rounded=0;orthogonalLoop=1;jettySize=auto;html=1;" edge="1" parent="WIyWlLk6GJQsqaUBKTNV-1" source="GIq7T0GoQN-_G19XyWKd-9" target="GIq7T0GoQN-_G19XyWKd-16">
          <mxGeometry relative="1" as="geometry" />
        </mxCell>
        <mxCell id="GIq7T0GoQN-_G19XyWKd-9" value="n 입력" style="shape=parallelogram;perimeter=parallelogramPerimeter;whiteSpace=wrap;html=1;fixedSize=1;" vertex="1" parent="WIyWlLk6GJQsqaUBKTNV-1">
          <mxGeometry x="269" y="390" width="120" height="60" as="geometry" />
        </mxCell>
        <mxCell id="GIq7T0GoQN-_G19XyWKd-13" value="" style="edgeStyle=orthogonalEdgeStyle;rounded=0;orthogonalLoop=1;jettySize=auto;html=1;" edge="1" parent="WIyWlLk6GJQsqaUBKTNV-1" source="GIq7T0GoQN-_G19XyWKd-12" target="GIq7T0GoQN-_G19XyWKd-9">
          <mxGeometry relative="1" as="geometry" />
        </mxCell>
        <mxCell id="GIq7T0GoQN-_G19XyWKd-12" value="start" style="ellipse;whiteSpace=wrap;html=1;" vertex="1" parent="WIyWlLk6GJQsqaUBKTNV-1">
          <mxGeometry x="244" y="260" width="170" height="60" as="geometry" />
        </mxCell>
        <mxCell id="GIq7T0GoQN-_G19XyWKd-19" style="edgeStyle=orthogonalEdgeStyle;rounded=0;orthogonalLoop=1;jettySize=auto;html=1;" edge="1" parent="WIyWlLk6GJQsqaUBKTNV-1" source="GIq7T0GoQN-_G19XyWKd-16" target="GIq7T0GoQN-_G19XyWKd-5">
          <mxGeometry relative="1" as="geometry" />
        </mxCell>
        <mxCell id="GIq7T0GoQN-_G19XyWKd-16" value="(n/2) *(n+1)" style="shape=document;whiteSpace=wrap;html=1;boundedLbl=1;" vertex="1" parent="WIyWlLk6GJQsqaUBKTNV-1">
          <mxGeometry x="269" y="544.5" width="120" height="80" as="geometry" />
        </mxCell>
      </root>
    </mxGraphModel>
  </diagram>
</mxfile>
